<svg xmlns="http://www.w3.org/2000/svg" viewBox="0 0 390 742">
  <defs>
    <linearGradient id="floor" x1="0" y1="0" x2="1" y2="1">
      <stop offset="0" stop-color="#6a6865"/>
      <stop offset=".44" stop-color="#868687"/>
      <stop offset="1" stop-color="#4b4d51"/>
    </linearGradient>
    <linearGradient id="paper" x1="0" y1="0" x2="1" y2="1">
      <stop offset="0" stop-color="#d4b398"/>
      <stop offset=".55" stop-color="#c49d7b"/>
      <stop offset="1" stop-color="#b58967"/>
    </linearGradient>
    <linearGradient id="cardboard" x1="0" y1="0" x2="1" y2="1">
      <stop offset="0" stop-color="#c9ad92"/>
      <stop offset=".58" stop-color="#ba9878"/>
      <stop offset="1" stop-color="#9f7654"/>
    </linearGradient>
    <filter id="grain">
      <feTurbulence type="fractalNoise" baseFrequency=".9" numOctaves="3" stitchTiles="stitch"/>
      <feColorMatrix type="saturate" values="0"/>
      <feComponentTransfer>
        <feFuncA type="table" tableValues="0 .16"/>
      </feComponentTransfer>
    </filter>
    <filter id="shadow" x="-30%" y="-30%" width="160%" height="170%">
      <feDropShadow dx="0" dy="10" stdDeviation="9" flood-color="#000" flood-opacity=".28"/>
    </filter>
    <pattern id="barcode" width="28" height="42" patternUnits="userSpaceOnUse">
      <rect width="2" height="42" x="0" fill="#333"/>
      <rect width="1.5" height="42" x="4" fill="#333"/>
      <rect width="4" height="42" x="8" fill="#333"/>
      <rect width="1" height="42" x="15" fill="#333"/>
      <rect width="2.5" height="42" x="19" fill="#333"/>
      <rect width="1" height="42" x="25" fill="#333"/>
    </pattern>
  </defs>

  <rect width="390" height="742" fill="url(#floor)"/>
  <rect width="390" height="742" filter="url(#grain)" opacity=".7"/>
  <path d="M287 0h73v742h-73z" fill="#5f6266" opacity=".62"/>
  <path d="M0 116h292v328H0z" fill="url(#paper)" filter="url(#shadow)"/>
  <path d="M0 116h292v328H0z" filter="url(#grain)" opacity=".45"/>
  <path d="M292 116h6v328h-6z" fill="#8e6c4f" opacity=".45"/>

  <g filter="url(#shadow)">
    <path d="M52-18h178v214H52z" fill="url(#cardboard)"/>
    <path d="M52-18h178v214H52z" filter="url(#grain)" opacity=".36"/>
    <path d="M82 175h94c10 0 18 8 18 18v3H64v-3c0-10 8-18 18-18z" fill="none" stroke="#74583e" stroke-width="1.2" opacity=".72"/>
    <path d="M116 196h48" stroke="#634b36" stroke-width="1.1" opacity=".65"/>
  </g>

  <g transform="translate(128 0)" filter="url(#shadow)">
    <path d="M0 0h76v110H0z" fill="#f2eee7"/>
    <rect x="12" y="8" width="52" height="42" fill="url(#barcode)"/>
    <path d="M8 58h60" stroke="#aaa" stroke-width=".8"/>
    <text x="38" y="68" text-anchor="middle" font-family="Arial, sans-serif" font-size="7" fill="#555">0340</text>
    <rect x="9" y="77" width="58" height="26" fill="url(#barcode)" opacity=".85"/>
  </g>

  <g filter="url(#shadow)">
    <path d="M0 642h128v100H0z" fill="#b28f6d"/>
    <path d="M0 642h128v100H0z" filter="url(#grain)" opacity=".42"/>
    <path d="M0 652h128" stroke="#d1b391" stroke-width="3" opacity=".65"/>
  </g>

  <path d="M90 273h238" stroke="#e84c40" stroke-width="1.5" opacity=".48"/>
  <rect width="390" height="742" fill="#000" opacity=".08"/>
</svg>
